<svg xmlns="http://www.w3.org/2000/svg" width="20" viewBox="0 0 48 48"><g transform="translate(-493 -638)"><g transform="translate(493 674)" fill="none" stroke="#fff" stroke-width="3"><circle cx="6" cy="6" r="6" stroke="none"/><circle cx="6" cy="6" r="4.5" fill="none"/></g><g transform="translate(493 674)" fill="none" stroke="#fff" stroke-width="3"><circle cx="6" cy="6" r="6" stroke="none"/><circle cx="6" cy="6" r="4.5" fill="none"/></g><g transform="translate(529 674)" fill="none" stroke="#fff" stroke-width="3"><circle cx="6" cy="6" r="6" stroke="none"/><circle cx="6" cy="6" r="4.5" fill="none"/></g><g transform="translate(511 674)" fill="none" stroke="#fff" stroke-width="3"><circle cx="6" cy="6" r="6" stroke="none"/><circle cx="6" cy="6" r="4.5" fill="none"/></g><g transform="translate(520 656)" fill="none" stroke="#fff" stroke-width="3"><circle cx="6" cy="6" r="6" stroke="none"/><circle cx="6" cy="6" r="4.5" fill="none"/></g><g transform="translate(502 656)" fill="none" stroke="#fff" stroke-width="3"><circle cx="6" cy="6" r="6" stroke="none"/><circle cx="6" cy="6" r="4.5" fill="none"/></g><g transform="translate(511 638)" fill="none" stroke="#fff" stroke-width="3"><circle cx="6" cy="6" r="6" stroke="none"/><circle cx="6" cy="6" r="4.5" fill="none"/></g><line y1="9" x2="5" transform="translate(501.5 666.5)" fill="none" stroke="#fff" stroke-width="3"/><line x1="4" y1="9" transform="translate(510.5 666.5)" fill="none" stroke="#fff" stroke-width="3"/><line x1="4" y1="9" transform="translate(528.5 666.5)" fill="none" stroke="#fff" stroke-width="3"/><line x1="5" y1="9" transform="translate(518.5 648.5)" fill="none" stroke="#fff" stroke-width="3"/><line y1="9" x2="5" transform="translate(510.5 648.5)" fill="none" stroke="#fff" stroke-width="3"/></g></svg>